PathFileType	4	(x/y/z)	S04_P20_T17.trc
DataRate	CameraRate	NumFrames	NumMarkers	Units	OrigDataRate	OrigDataStartFrame	OrigNumFrames
240	240	4	51	mm	240	324	370
Frame#	Time	Sternum			R.Acromium			L.Acromium			Top.Head			R.ASIS			L.ASIS			R.PSIS			L.PSIS			R.Great.Tro			L.Great.Tro			R.Iliac.Crest			L.Iliac.Crest			V.Sacral			R.Thigh.Upper.Post			R.Thigh.Lower.Ant			R.Thigh.Lower.Post			R.Thigh.Upper.Ant			R.Knee.Lat			R.Knee.Med			R.Shank.Upper.Post			R.Shank.Lower.Ant			R.Shank.Lower.Post			R.Shank.Upper.Ant			R.Ankle.Lat			R.Ankle.Med			R.Heel.Upper			R.Heel.Med			R.Heel.Lat			R.Toe.Lat			R.Toe.Med			R.Toe.Tip			L.Thigh.Upper.Post			L.Thigh.Lower.Ant			L.Thigh.Lower.Post			L.Thigh.Upper.Ant			L.Knee.Lat			L.Knee.Med			L.Shank.Upper.Post			L.Shank.Lower.Ant			L.Shank.Lower.Post			L.Shank.Upper.Ant			L.Ankle.Lat			L.Ankle.Med			L.Heel.Upper			L.Heel.Med			L.Heel.Lat			L.Toe.Lat			L.Toe.Med			L.Toe.Tip			Cervical.Spine			Back			
		X1	Y1	Z1	X2	Y2	Z2	X3	Y3	Z3	X4	Y4	Z4	X5	Y5	Z5	X6	Y6	Z6	X7	Y7	Z7	X8	Y8	Z8	X9	Y9	Z9	X10	Y10	Z10	X11	Y11	Z11	X12	Y12	Z12	X13	Y13	Z13	X14	Y14	Z14	X15	Y15	Z15	X16	Y16	Z16	X17	Y17	Z17	X18	Y18	Z18	X19	Y19	Z19	X20	Y20	Z20	X21	Y21	Z21	X22	Y22	Z22	X23	Y23	Z23	X24	Y24	Z24	X25	Y25	Z25	X26	Y26	Z26	X27	Y27	Z27	X28	Y28	Z28	X29	Y29	Z29	X30	Y30	Z30	X31	Y31	Z31	X32	Y32	Z32	X33	Y33	Z33	X34	Y34	Z34	X35	Y35	Z35	X36	Y36	Z36	X37	Y37	Z37	X38	Y38	Z38	X39	Y39	Z39	X40	Y40	Z40	X41	Y41	Z41	X42	Y42	Z42	X43	Y43	Z43	X44	Y44	Z44	X45	Y45	Z45	X46	Y46	Z46	X47	Y47	Z47	X48	Y48	Z48	X49	Y49	Z49	X50	Y50	Z50	X51	Y51	Z51	

324	1.3458	421.63	1275.1	269.48	298	1509.4	439.38	303.93	1493.1	88.992	386.16	1828.5	254.37	380.62	999.31	396.82	370.14	1012.6	149.32	164.93	1031	310.04	170.54	1037.5	229.39	303.14	919.17	466.41	246.52	930.82	90.781	295.04	1090.7	442.98	278.39	1097	107.04	147.4	992.22	268.48	372.55	665.99	456.92	468.39	611.92	419.55	400.44	580.73	439.94	442.99	717.9	440.86	446.37	528.49	430.87	425.3	514.61	295.98	440.79	292.94	425.55	532.06	240.93	390.66	463.63	227.22	411.01	506.1	306.16	413.61	512.79	120.52	392.81	538.76	141.74	306.66	469.09	69.62	329.12	492.02	45.377	301.33	479.5	39.676	363.93	635.32	84.918	434.12	682.63	102.91	323.58	728.41	140.66	377.62	205.49	702.09	107.48	274.9	597.3	111.71	204.52	613.04	119.53	270.93	686.65	95.437	228.18	511.97	125.56	235.61	501.85	249.06	112.94	346.54	132.14	168.69	250.51	132.17	107.26	269.08	140.17	174.38	326.72	123.58	125.1	104.51	154.82	129.56	114.09	247.91	45.739	74.531	200.36	51.687	48.824	233.81	49.396	47.404	172.02	233.07	41.735	131.62	265.07	45.537	248.1	322.07	53.986	198.01	255.72	1559	266.31	164.01	1302.5	244.37
325	1.35	427.18	1274.5	269.79	303.4	1508.7	439.77	309.38	1492.4	89.393	391.42	1827.9	254.69	386.44	998.67	396.88	375.53	1011.9	149.38	170.6	1030.3	310.43	176.13	1036.9	229.78	308.94	918.49	466.59	251.7	930.31	90.95	300.76	1089.9	443.21	283.84	1096.4	107.24	153.04	991.56	268.88	377.64	665.13	457.19	473.46	611.01	419.81	405.46	579.86	440.1	448.13	716.99	441.24	451.71	527.92	431.06	430.51	513.75	296.12	449.26	292.16	425.65	541.12	241.36	390.5	472.96	226.74	411.07	514.32	306.25	413.52	523.61	120.63	392.72	548.91	142.24	306.49	480.44	68.864	329.25	503.69	44.968	301.39	491.46	39.126	364.05	646.88	87.01	433.62	693.52	105.72	322.95	738.85	144.33	376.78	209.65	701.97	107.64	278.56	596.85	112.04	208.24	612.9	119.76	275.02	686.23	95.758	231.21	511.68	125.67	238.73	501.57	249.21	114.8	347.06	132.34	169.89	250.63	132.26	108.61	269.64	140.36	176.08	326.8	123.7	125.35	104.76	155.01	129.89	114.37	248.07	45.848	74.789	200.61	51.77	49.02	234	49.465	47.713	172.21	233.12	41.722	131.68	265.21	45.343	248.14	322.24	53.617	198.03	261.12	1558.3	266.68	169.51	1301.8	244.63
326	1.3542	432.72	1273.8	270.12	308.8	1507.9	440.17	314.81	1491.8	89.817	396.67	1827.2	255.01	392.26	998.03	396.94	380.95	1011.1	149.44	176.29	1029.7	310.83	181.75	1036.2	230.17	314.76	917.83	466.78	256.93	929.8	91.117	306.48	1089.2	443.46	289.32	1095.8	107.45	158.7	990.88	269.28	382.87	664.3	457.44	478.66	610.15	420.04	410.61	579.03	440.25	453.4	716.12	441.61	457.14	527.35	431.21	435.8	512.94	296.24	457.49	291.42	425.72	549.83	241.7	390.29	481.93	226.27	411.1	522.3	306.29	413.37	533.9	120.72	392.58	558.54	142.67	306.26	491.2	68.158	329.32	514.72	44.58	301.41	502.78	38.615	364.12	657.83	88.924	433.05	703.8	108.29	322.24	748.73	147.69	375.85	213.93	701.83	107.79	282.35	596.38	112.37	212.09	612.73	119.99	279.22	685.78	96.082	234.38	511.37	125.79	242	501.28	249.37	116.76	347.6	132.55	171.15	250.76	132.36	110.04	270.23	140.56	177.87	326.88	123.83	125.61	105.03	155.2	130.24	114.68	248.24	45.966	75.092	200.86	51.859	49.263	234.19	49.536	48.062	172.41	233.17	41.705	131.75	265.36	45.153	248.18	322.41	53.237	198.04	266.51	1557.6	267.07	175.02	1301.1	244.91
327	1.3583	438.26	1273.1	270.45	314.2	1507.2	440.6	320.22	1491.2	90.263	401.93	1826.5	255.35	398.08	997.41	397.01	386.4	1010.4	149.52	181.99	1029	311.24	187.38	1035.5	230.56	320.59	917.17	466.97	262.21	929.26	91.282	312.19	1088.4	443.71	294.82	1095.1	107.66	164.39	990.18	269.68	388.22	663.5	457.68	483.98	609.34	420.22	415.91	578.24	440.38	458.79	715.3	441.97	462.68	526.8	431.34	441.16	512.18	296.36	465.47	290.73	425.76	558.19	241.95	390.01	490.55	225.82	411.09	530.04	306.26	413.18	543.65	120.76	392.39	567.64	143	305.99	501.33	67.492	329.35	525.09	44.199	301.37	513.45	38.13	364.15	668.16	90.631	432.4	713.45	110.58	321.45	758.03	150.7	374.84	218.32	701.65	107.93	286.28	595.91	112.7	216.07	612.53	120.22	283.53	685.32	96.41	237.7	511.04	125.92	245.42	500.96	249.53	118.82	348.15	132.75	172.49	250.91	132.46	111.54	270.84	140.76	179.76	326.97	123.96	125.89	105.34	155.39	130.62	115.04	248.41	46.096	75.45	201.12	51.957	49.562	234.39	49.611	48.459	172.61	233.22	41.684	131.82	265.51	44.969	248.22	322.6	52.845	198.05	271.89	1556.8	267.49	180.52	1300.3	245.22
